<svg id="Layer_1" data-name="Layer 1" xmlns="http://www.w3.org/2000/svg" viewBox="0 0 190 44.92"><defs><style>.cls-1{fill:#323e48;}.cls-2{fill:#ec7700;}</style></defs><path class="cls-1" d="M67.44,1.62h3.85L64.17,20.84h-2L58,7.92,53.79,20.84h-2L44.64,1.62h3.85l4.3,12.49,4-12.49h2.38l4,12.49Zm23.45,0V20.84h-3.3v-3A7.26,7.26,0,0,1,85.51,20a9.58,9.58,0,0,1-5.15,1.38,9.37,9.37,0,0,1-7-2.88,9.87,9.87,0,0,1-2.8-7.15A10,10,0,0,1,73.42,4a9.64,9.64,0,0,1,7.17-2.9A9.43,9.43,0,0,1,84.7,2a6.88,6.88,0,0,1,2.89,2.39V1.62ZM80.71,18a6.33,6.33,0,0,0,4.67-2,6.58,6.58,0,0,0,1.94-4.77A6.82,6.82,0,0,0,85.4,6.4a6.46,6.46,0,0,0-9.35,0,6.75,6.75,0,0,0-1.92,4.87A6.65,6.65,0,0,0,76.07,16,6.25,6.25,0,0,0,80.71,18Zm29.48-9v11.8h-3.57V10.41a7.7,7.7,0,0,0-.81-4,4.41,4.41,0,0,0-4-2A4.5,4.5,0,0,0,98.13,6a6.71,6.71,0,0,0-1.32,4.4V20.84H93.16V1.62h3.35v2a6.68,6.68,0,0,1,5.69-2.53A7.85,7.85,0,0,1,108,3.31,7.69,7.69,0,0,1,110.19,9Zm2.65-7.43h6.4c6,0,10.21,4.15,10.21,9.56v.06c0,5.41-4.17,9.61-10.21,9.61h-6.4Zm6.4,17.91c5.35,0,8.73-3.65,8.73-8.24v0c0-4.56-3.38-8.3-8.73-8.3h-5V19.52ZM131.76,1.61h1.43V20.84h-1.43ZM136.21,18l.93-1.07a9.36,9.36,0,0,0,6.9,2.86c2.88,0,4.86-1.63,4.86-3.83V16c0-2-1.07-3.21-5.44-4.09-4.61-.93-6.48-2.5-6.48-5.41V6.39c0-2.85,2.61-5,6.18-5a9.56,9.56,0,0,1,6.59,2.34l-.91,1.12a8.29,8.29,0,0,0-5.74-2.17c-2.83,0-4.69,1.62-4.69,3.63v0c0,2,1,3.27,5.6,4.21s6.32,2.49,6.32,5.29v.06c0,3.1-2.67,5.25-6.38,5.25A11,11,0,0,1,136.21,18Zm16.31-6.76v0a9.66,9.66,0,0,1,9.62-9.94,10.15,10.15,0,0,1,7.47,3.07l-1,1a8.8,8.8,0,0,0-6.48-2.83c-4.62,0-8.11,3.76-8.11,8.59v.06c0,4.86,3.55,8.65,8.14,8.65a8.81,8.81,0,0,0,6.62-3l1,.94a10.14,10.14,0,0,1-7.64,3.35A9.56,9.56,0,0,1,152.52,11.28Zm18.62,0v0a9.67,9.67,0,0,1,9.7-9.94,9.57,9.57,0,0,1,9.63,9.88s0,0,0,.06a9.67,9.67,0,1,1-19.33,0Zm17.85,0v0c0-4.75-3.46-8.65-8.21-8.65s-8.16,3.84-8.16,8.59v.06c0,4.75,3.46,8.65,8.22,8.65S189,16,189,11.28Z" transform="translate(-0.5 -1.04)"/><polygon class="cls-2" points="31.02 10.15 20.87 0 15.51 5.36 10.15 0 0 10.15 10.15 20.3 15.51 14.94 20.87 20.3 31.02 10.15"/><polygon class="cls-2" points="31.02 0 27.57 3.46 32.64 8.53 34.26 10.15 32.64 11.77 27.57 16.85 31.02 20.3 41.17 10.15 31.02 0"/><path class="cls-1" d="M54.58,33.77h-3.4V43h-.83V33.77H47v-.71h7.63Z" transform="translate(-0.5 -1.04)"/><path class="cls-1" d="M56.83,36.86a2.85,2.85,0,0,1,1-1,2.72,2.72,0,0,1,1.37-.36,2.24,2.24,0,0,1,1.77.66,3,3,0,0,1,.58,2V43h-.81V38.14a2.19,2.19,0,0,0-.42-1.47A1.63,1.63,0,0,0,59,36.18a2,2,0,0,0-1.34.48,2.69,2.69,0,0,0-.86,1.27v5H56V32.52h.82Z" transform="translate(-0.5 -1.04)"/><path class="cls-1" d="M66.45,43.12a3.19,3.19,0,0,1-1.7-.46,3.13,3.13,0,0,1-1.18-1.29,4,4,0,0,1-.43-1.86v-.29a4.3,4.3,0,0,1,.42-1.92A3.25,3.25,0,0,1,64.7,36a2.88,2.88,0,0,1,1.6-.48,2.68,2.68,0,0,1,2.13.91,3.75,3.75,0,0,1,.78,2.51v.45H64v.16a3.1,3.1,0,0,0,.72,2.09,2.32,2.32,0,0,0,1.81.83,2.43,2.43,0,0,0,2.07-1l.51.39A3,3,0,0,1,66.45,43.12Zm-.15-6.95a2.07,2.07,0,0,0-1.55.67A3.13,3.13,0,0,0,64,38.66H68.4v-.09a2.68,2.68,0,0,0-.6-1.73A1.86,1.86,0,0,0,66.3,36.17Z" transform="translate(-0.5 -1.04)"/><path class="cls-1" d="M75.86,41.61h4.51V43H74.14V33.06h1.72Z" transform="translate(-0.5 -1.04)"/><path class="cls-1" d="M81.51,33.7a.86.86,0,0,1,.25-.64,1.08,1.08,0,0,1,1.38,0,.86.86,0,0,1,.25.64.81.81,0,0,1-.25.62,1.08,1.08,0,0,1-1.38,0A.81.81,0,0,1,81.51,33.7ZM83.27,43H81.62V35.61h1.65Z" transform="translate(-0.5 -1.04)"/><path class="cls-1" d="M87.66,40.89l1.56-5.28h1.71L88.38,43H86.94l-2.58-7.37h1.72Z" transform="translate(-0.5 -1.04)"/><path class="cls-1" d="M94.93,43.12a3.46,3.46,0,0,1-2.56-1,3.6,3.6,0,0,1-1-2.64v-.21a4.48,4.48,0,0,1,.42-2A3.29,3.29,0,0,1,93,36a3.16,3.16,0,0,1,1.72-.48,2.88,2.88,0,0,1,2.32,1,4,4,0,0,1,.82,2.71v.67H93.07a2.22,2.22,0,0,0,.61,1.45A1.82,1.82,0,0,0,95,41.8a2.27,2.27,0,0,0,1.86-.92l.89.85a3.1,3.1,0,0,1-1.18,1A3.78,3.78,0,0,1,94.93,43.12Zm-.2-6.32a1.38,1.38,0,0,0-1.1.48,2.5,2.5,0,0,0-.54,1.33h3.16v-.12a2.07,2.07,0,0,0-.44-1.26A1.41,1.41,0,0,0,94.73,36.8Z" transform="translate(-0.5 -1.04)"/><path class="cls-1" d="M99.43,43V33.06h2.93a4.62,4.62,0,0,1,2.34.59,3.93,3.93,0,0,1,1.57,1.66,5.2,5.2,0,0,1,.56,2.47v.5a5.21,5.21,0,0,1-.56,2.48,3.89,3.89,0,0,1-1.6,1.64,4.77,4.77,0,0,1-2.38.58Zm1.73-8.53v7.16h1.12a2.56,2.56,0,0,0,2.08-.85,3.68,3.68,0,0,0,.74-2.44v-.55a3.76,3.76,0,0,0-.7-2.46,2.5,2.5,0,0,0-2-.86Z" transform="translate(-0.5 -1.04)"/><path class="cls-1" d="M112.72,43a2.5,2.5,0,0,1-.19-.68,2.58,2.58,0,0,1-1.94.82,2.61,2.61,0,0,1-1.81-.63,2,2,0,0,1-.7-1.57,2.09,2.09,0,0,1,.87-1.81,4.27,4.27,0,0,1,2.51-.63h1V38a1.15,1.15,0,0,0-1.29-1.26,1.45,1.45,0,0,0-.93.28.88.88,0,0,0-.36.72h-1.66a1.85,1.85,0,0,1,.41-1.14,2.62,2.62,0,0,1,1.09-.82,3.85,3.85,0,0,1,1.54-.3,3.08,3.08,0,0,1,2.07.65,2.34,2.34,0,0,1,.79,1.83v3.32a3.75,3.75,0,0,0,.28,1.59V43Zm-1.82-1.19a1.86,1.86,0,0,0,.92-.24,1.54,1.54,0,0,0,.65-.64V39.52h-.89a2.47,2.47,0,0,0-1.38.32,1.06,1.06,0,0,0-.47.91,1,1,0,0,0,.32.76A1.21,1.21,0,0,0,110.9,41.79Z" transform="translate(-0.5 -1.04)"/><path class="cls-1" d="M117.92,33.82v1.79h1.3v1.23h-1.3V41a.91.91,0,0,0,.16.61.76.76,0,0,0,.6.19,2.36,2.36,0,0,0,.58-.07V43a3.89,3.89,0,0,1-1.09.16c-1.27,0-1.91-.7-1.91-2.11V36.84h-1.21V35.61h1.21V33.82Z" transform="translate(-0.5 -1.04)"/><path class="cls-1" d="M124.9,43a2.44,2.44,0,0,1-.2-.68,2.56,2.56,0,0,1-1.93.82,2.61,2.61,0,0,1-1.81-.63,2,2,0,0,1-.7-1.57,2.09,2.09,0,0,1,.87-1.81,4.25,4.25,0,0,1,2.51-.63h1V38a1.3,1.3,0,0,0-.32-.92,1.26,1.26,0,0,0-1-.34,1.45,1.45,0,0,0-.93.28.88.88,0,0,0-.36.72h-1.66a1.91,1.91,0,0,1,.4-1.14,2.72,2.72,0,0,1,1.1-.82,3.81,3.81,0,0,1,1.54-.3,3.09,3.09,0,0,1,2.07.65,2.34,2.34,0,0,1,.79,1.83v3.32a3.92,3.92,0,0,0,.27,1.59V43Zm-1.82-1.19a1.89,1.89,0,0,0,.92-.24,1.6,1.6,0,0,0,.65-.64V39.52h-.89a2.48,2.48,0,0,0-1.39.32,1.07,1.07,0,0,0-.46.91,1,1,0,0,0,.32.76A1.21,1.21,0,0,0,123.08,41.79Z" transform="translate(-0.5 -1.04)"/><path class="cls-1" d="M138.86,39.89a3.52,3.52,0,0,1-1.12,2.4,3.72,3.72,0,0,1-2.53.83,3.45,3.45,0,0,1-2-.55A3.57,3.57,0,0,1,132,41a5.44,5.44,0,0,1-.47-2.31V37.4a5.59,5.59,0,0,1,.46-2.34,3.57,3.57,0,0,1,1.33-1.58,3.64,3.64,0,0,1,2-.55,3.31,3.31,0,0,1,3.59,3.23H138a2.53,2.53,0,0,0-2.75-2.52,2.59,2.59,0,0,0-2.15,1,4.38,4.38,0,0,0-.8,2.78v1.22a4.41,4.41,0,0,0,.78,2.74,2.53,2.53,0,0,0,2.11,1,2.77,2.77,0,0,0,2-.63,3,3,0,0,0,.83-1.89Z" transform="translate(-0.5 -1.04)"/><path class="cls-1" d="M140.29,39.19a4.29,4.29,0,0,1,.41-1.92,3.08,3.08,0,0,1,2.87-1.79,3,3,0,0,1,2.38,1,4,4,0,0,1,.92,2.73v.17a4.31,4.31,0,0,1-.42,1.93,3.05,3.05,0,0,1-1.16,1.32,3.17,3.17,0,0,1-1.71.46,3,3,0,0,1-2.38-1,4,4,0,0,1-.91-2.74Zm.81.22a3.32,3.32,0,0,0,.69,2.17,2.31,2.31,0,0,0,3.58,0,3.42,3.42,0,0,0,.69-2.23v-.16a3.77,3.77,0,0,0-.32-1.55,2.44,2.44,0,0,0-.88-1.08,2.29,2.29,0,0,0-3.07.47,3.43,3.43,0,0,0-.69,2.23Z" transform="translate(-0.5 -1.04)"/><path class="cls-1" d="M149.26,35.61l0,1.2a2.69,2.69,0,0,1,2.39-1.33,2.06,2.06,0,0,1,2.21,1.43,2.77,2.77,0,0,1,1.06-1.06,2.91,2.91,0,0,1,1.46-.37c1.58,0,2.38.86,2.42,2.58V43H158V38.13a2.24,2.24,0,0,0-.43-1.47,1.72,1.72,0,0,0-1.36-.48,2.17,2.17,0,0,0-1.49.57,2,2,0,0,0-.67,1.36V43h-.82V38.06a2,2,0,0,0-.45-1.41,1.77,1.77,0,0,0-1.35-.47,2.08,2.08,0,0,0-1.32.44,2.62,2.62,0,0,0-.82,1.31v5h-.82V35.61Z" transform="translate(-0.5 -1.04)"/><path class="cls-1" d="M166.71,39.37a4.45,4.45,0,0,1-.76,2.74,2.44,2.44,0,0,1-2,1,2.73,2.73,0,0,1-2.32-1.06v3.76h-.81V35.61h.76l0,1a2.62,2.62,0,0,1,2.31-1.17,2.44,2.44,0,0,1,2.07,1,4.53,4.53,0,0,1,.75,2.78Zm-.81-.14a3.86,3.86,0,0,0-.58-2.23,1.9,1.9,0,0,0-1.62-.82,2.2,2.2,0,0,0-1.29.37,2.33,2.33,0,0,0-.82,1v3.54a2.16,2.16,0,0,0,.84,1,2.43,2.43,0,0,0,1.29.33,1.84,1.84,0,0,0,1.6-.82A4.16,4.16,0,0,0,165.9,39.23Z" transform="translate(-0.5 -1.04)"/><path class="cls-1" d="M173,43a3.81,3.81,0,0,1-.15-1,2.93,2.93,0,0,1-1.1.86,3.36,3.36,0,0,1-1.4.3,2.48,2.48,0,0,1-1.72-.59,2,2,0,0,1,.24-3.2,4.24,4.24,0,0,1,2.49-.63h1.48v-.84a1.58,1.58,0,0,0-.49-1.24,2,2,0,0,0-1.42-.46,2.26,2.26,0,0,0-1.41.44,1.3,1.3,0,0,0-.56,1h-.81a1.91,1.91,0,0,1,.81-1.52,3.16,3.16,0,0,1,2-.64,2.88,2.88,0,0,1,1.95.61,2.22,2.22,0,0,1,.73,1.72V41.3a4.3,4.3,0,0,0,.23,1.6V43Zm-2.56-.58a2.67,2.67,0,0,0,1.46-.4,2.27,2.27,0,0,0,.94-1V39.33h-1.46a3.51,3.51,0,0,0-1.9.44,1.35,1.35,0,0,0-.69,1.19,1.31,1.31,0,0,0,.46,1A1.72,1.72,0,0,0,170.47,42.4Z" transform="translate(-0.5 -1.04)"/><path class="cls-1" d="M176.48,35.61l0,1.26a3,3,0,0,1,1-1,2.76,2.76,0,0,1,1.37-.35,2.22,2.22,0,0,1,1.76.66,3,3,0,0,1,.59,2V43h-.81V38.14a2.3,2.3,0,0,0-.42-1.47,1.67,1.67,0,0,0-1.32-.49,2,2,0,0,0-1.34.48,2.69,2.69,0,0,0-.86,1.27v5h-.81V35.61Z" transform="translate(-0.5 -1.04)"/><path class="cls-1" d="M185.41,41.81l2.15-6.2h.88l-3.14,8.63-.17.38A2,2,0,0,1,183.26,46a2.39,2.39,0,0,1-.63-.09v-.68l.42,0a1.55,1.55,0,0,0,1-.29,2.23,2.23,0,0,0,.63-1l.36-1-2.78-7.31h.89Z" transform="translate(-0.5 -1.04)"/></svg>